REM DIRINDEX 1\2,1\3,1\4,1\5
REM DIRNAME folder01,folder02,folder03,folder04,folder05
TITLE ""
FILE "094.mp3" MP3
  TRACK 01 AUDIO
    TITLE "0:"
    INDEX 01 00:00:00
  TRACK 02 AUDIO
    TITLE "2:cjc046_1994"
    INDEX 01 00:00:15
  TRACK 03 AUDIO
    TITLE "0:"
    INDEX 01 00:01:15
  TRACK 04 AUDIO
    TITLE "3:cjc046_1995"
    INDEX 01 00:01:44
  TRACK 05 AUDIO
    TITLE "0:"
    INDEX 01 00:02:30
  TRACK 06 AUDIO
    TITLE "4:cjc046_1996"
    INDEX 01 00:02:42
  TRACK 07 AUDIO
    TITLE "0:"
    INDEX 01 00:03:45
  TRACK 08 AUDIO
    TITLE "2:cjc046_1997"
    INDEX 01 00:04:54
  TRACK 09 AUDIO
    TITLE "0:"
    INDEX 01 00:06:00
  TRACK 10 AUDIO
    TITLE "3:cjc046_1998"
    INDEX 01 00:06:30
  TRACK 11 AUDIO
    TITLE "0:"
    INDEX 01 00:07:33
  TRACK 12 AUDIO
    TITLE "4:cjc046_1999"
    INDEX 01 00:07:47
  TRACK 13 AUDIO
    TITLE "0:"
    INDEX 01 00:08:68
  TRACK 14 AUDIO
    TITLE "2:cjc046_2000"
    INDEX 01 00:10:02
  TRACK 15 AUDIO
    TITLE "0:"
    INDEX 01 00:11:15
  TRACK 16 AUDIO
    TITLE "3:cjc046_2001"
    INDEX 01 00:11:35
  TRACK 17 AUDIO
    TITLE "0:"
    INDEX 01 00:12:30
  TRACK 18 AUDIO
    TITLE "4:cjc046_2002"
    INDEX 01 00:12:42
  TRACK 19 AUDIO
    TITLE "0:"
    INDEX 01 00:13:57
  TRACK 20 AUDIO
    TITLE "2:cjc046_2003"
    INDEX 01 00:14:64
  TRACK 21 AUDIO
    TITLE "0:"
    INDEX 01 00:16:04
  TRACK 22 AUDIO
    TITLE "3:cjc046_2004"
    INDEX 01 00:16:30
  TRACK 23 AUDIO
    TITLE "0:"
    INDEX 01 00:17:51
  TRACK 24 AUDIO
    TITLE "4:cjc046_2005"
    INDEX 01 00:17:59
  TRACK 25 AUDIO
    TITLE "0:"
    INDEX 01 00:18:74
  TRACK 26 AUDIO
    TITLE "2:cjc046_2006"
    INDEX 01 00:20:10
  TRACK 27 AUDIO
    TITLE "0:"
    INDEX 01 00:21:11
  TRACK 28 AUDIO
    TITLE "3:cjc046_2007"
    INDEX 01 00:21:31
  TRACK 29 AUDIO
    TITLE "0:"
    INDEX 01 00:22:50
  TRACK 30 AUDIO
    TITLE "4:cjc046_2008"
    INDEX 01 00:22:62
  TRACK 31 AUDIO
    TITLE "0:"
    INDEX 01 00:23:63
  TRACK 32 AUDIO
    TITLE "2:cjc046_2009"
    INDEX 01 00:24:72
  TRACK 33 AUDIO
    TITLE "0:"
    INDEX 01 00:25:72
  TRACK 34 AUDIO
    TITLE "3:cjc046_2010"
    INDEX 01 00:26:24
  TRACK 35 AUDIO
    TITLE "0:"
    INDEX 01 00:27:12
  TRACK 36 AUDIO
    TITLE "4:cjc046_2011"
    INDEX 01 00:27:30
  TRACK 37 AUDIO
    TITLE "0:"
    INDEX 01 00:28:29
  TRACK 38 AUDIO
    TITLE "2:cjc046_2012"
    INDEX 01 00:29:38
  TRACK 39 AUDIO
    TITLE "0:"
    INDEX 01 00:30:42
  TRACK 40 AUDIO
    TITLE "3:cjc046_2013"
    INDEX 01 00:30:67
  TRACK 41 AUDIO
    TITLE "0:"
    INDEX 01 00:32:50
  TRACK 42 AUDIO
    TITLE "4:cjc046_2014"
    INDEX 01 00:32:62
  TRACK 43 AUDIO
    TITLE "0:"
    INDEX 01 00:33:62
  TRACK 44 AUDIO
    TITLE "2:cjc046_2015"
    INDEX 01 00:34:65
  TRACK 45 AUDIO
    TITLE "0:"
    INDEX 01 00:35:70
  TRACK 46 AUDIO
    TITLE "3:cjc046_2016"
    INDEX 01 00:36:13
  TRACK 47 AUDIO
    TITLE "0:"
    INDEX 01 00:37:30
  TRACK 48 AUDIO
    TITLE "4:cjc046_2017"
    INDEX 01 00:37:36
  TRACK 49 AUDIO
    TITLE "0:"
    INDEX 01 00:38:39
  TRACK 50 AUDIO
    TITLE "2:cjc046_2018"
    INDEX 01 00:39:45
  TRACK 51 AUDIO
    TITLE "0:"
    INDEX 01 00:40:60
  TRACK 52 AUDIO
    TITLE "3:cjc046_2019"
    INDEX 01 00:41:12
  TRACK 53 AUDIO
    TITLE "0:"
    INDEX 01 00:42:27
  TRACK 54 AUDIO
    TITLE "4:cjc046_2020"
    INDEX 01 00:42:31
  TRACK 55 AUDIO
    TITLE "0:"
    INDEX 01 00:43:46
  TRACK 56 AUDIO
    TITLE "2:cjc046_2021"
    INDEX 01 00:44:56
  TRACK 57 AUDIO
    TITLE "0:"
    INDEX 01 00:45:63
  TRACK 58 AUDIO
    TITLE "3:cjc046_2022"
    INDEX 01 00:46:11
  TRACK 59 AUDIO
    TITLE "0:"
    INDEX 01 00:47:30
  TRACK 60 AUDIO
    TITLE "4:cjc046_2023"
    INDEX 01 00:47:40
  TRACK 61 AUDIO
    TITLE "0:"
    INDEX 01 00:48:49
